HIERARCHY
ROOT hip
{
	OFFSET 0.000000 0.000000 0.000000 
	CHANNELS 6 Xposition Yposition Zposition Xrotation Zrotation Yrotation
	JOINT abdomen
	{
		OFFSET 0.000000 3.402643 0.000000 
		CHANNELS 3 Xrotation Zrotation Yrotation
		JOINT chest
		{
			OFFSET 0.000000 8.438565 -0.680529 
			CHANNELS 3 Xrotation Zrotation Yrotation
			JOINT neck
			{
				OFFSET 0.000000 10.207942 -0.272212 
				CHANNELS 3 Xrotation Zrotation Yrotation
				JOINT head
				{
					OFFSET 0.000000 3.130431 0.000000 
					CHANNELS 3 Xrotation Zrotation Yrotation
					End Site
					{
						OFFSET 0.000000 3.130435 0.000000 
					}
				}
			}
			JOINT lCollar
			{
				OFFSET 3.470700 6.669187 -0.816635 
				CHANNELS 3 Yrotation Zrotation Xrotation
				JOINT lShldr
				{
					OFFSET 3.198488 0.000000 0.000000 
					CHANNELS 3 Zrotation Yrotation Xrotation
					JOINT lForeArm
					{
						OFFSET 10.139888 0.000000 0.000000 
						CHANNELS 3 Yrotation Zrotation Xrotation
						JOINT lHand
						{
							OFFSET 8.370511 0.000000 0.000000 
							CHANNELS 3 Zrotation Yrotation Xrotation
							End Site
							{
								OFFSET 4.083176 0.000000 0.000000 
							}
						}
					}
				}
			}
			JOINT rCollar
			{
				OFFSET -3.470700 6.669187 -0.816635 
				CHANNELS 3 Yrotation Zrotation Xrotation
				JOINT rShldr
				{
					OFFSET -3.198488 0.000000 0.000000 
					CHANNELS 3 Zrotation Yrotation Xrotation
					JOINT rForeArm
					{
						OFFSET -10.139888 0.000000 0.000000 
						CHANNELS 3 Yrotation Zrotation Xrotation
						JOINT rHand
						{
							OFFSET -8.370511 0.000000 0.000000 
							CHANNELS 3 Zrotation Yrotation Xrotation
							End Site
							{
								OFFSET -4.083176 0.000000 0.000000 
							}
						}
					}
				}
			}
		}
	}
	JOINT lThigh
	{
		OFFSET 5.308129 -1.633274 1.361059 
		CHANNELS 3 Xrotation Zrotation Yrotation
		JOINT lShin
		{
			OFFSET -2.041588 -20.007561 0.000000 
			CHANNELS 3 Xrotation Zrotation Yrotation
			JOINT lFoot
			{
				OFFSET 0.000000 -19.190928 -1.224953 
				CHANNELS 3 Xrotation Yrotation Zrotation
				End Site
				{
					OFFSET 0.000000 -2.449906 4.627600 
				}
			}
		}
	}
	JOINT rThigh
	{
		OFFSET -5.308129 -1.633274 1.361059 
		CHANNELS 3 Xrotation Zrotation Yrotation
		JOINT rShin
		{
			OFFSET 2.041588 -20.007561 0.000000 
			CHANNELS 3 Xrotation Zrotation Yrotation
			JOINT rFoot
			{
				OFFSET 0.000000 -19.190928 -1.224953 
				CHANNELS 3 Xrotation Yrotation Zrotation
				End Site
				{
					OFFSET 0.000000 -2.449906 4.627600 
				}
			}
		}
	}
}
MOTION
Frames: 9
Frame Time: 0.033333
34.023823 16.531160 20.767469 120.477379 -35.285942 -168.357010 0.000000 0.000000 0.000000 35.197826 9.958702 6.872858 -0.164051 -32.756317 -2.605617 15.077786 24.778740 27.069553 39.306267 19.055365 8.630412 -63.769466 -55.512089 -19.155832 -62.411453 -2.393938 31.637508 38.572861 14.102640 -57.646770 -45.000000 -29.996695 -24.996220 125.437599 31.743843 90.484009 27.112818 -112.424332 1.202368 21.905735 3.674394 -76.628487 -60.761063 32.499359 18.477503 105.176369 10.367471 -0.862087 40.346539 10.843557 -19.863501 -27.258928 7.760729 4.475662 131.681381 -10.747029 6.437239 18.216551 4.072821 23.685444 
35.046772 16.044952 21.192091 114.946335 -36.790337 -164.878830 0.000000 0.000000 0.000000 31.399958 7.093456 6.486173 2.549754 -33.574524 -2.689318 13.711153 22.846682 22.733698 38.155518 17.641106 10.241049 -59.302864 -60.030041 -21.980040 -62.718636 -0.297956 27.375044 38.448666 15.266344 -56.124748 -45.000000 -29.996695 -24.996220 123.734039 28.954664 90.520241 44.683945 -114.898056 18.960978 20.190424 0.163714 -76.379143 -66.714241 28.804749 15.231170 98.873138 2.986757 -2.557592 44.769562 11.506193 -22.716404 -23.526312 0.477605 2.142021 129.464737 -15.599915 5.422131 18.427973 4.402543 24.428659 
36.064781 15.331191 21.612162 107.470222 -38.284431 -159.945221 0.000000 0.000000 0.000000 27.062386 3.399671 5.938693 2.146128 -35.113583 -2.831068 13.680738 23.745613 21.736101 37.193115 14.637795 12.844382 -48.490292 -66.727577 -29.398224 -61.970005 2.793577 20.282019 38.642620 16.686625 -54.013397 -45.000000 -29.996695 -24.996220 123.535309 23.606691 91.373756 56.749363 -119.255005 34.003918 19.792238 1.389275 -76.010735 -72.158165 25.322250 12.328074 89.115913 -5.087719 -4.427979 50.300579 12.947711 -27.511646 -20.384817 -7.585808 -0.438577 126.361809 -18.220545 4.791819 18.229408 7.044770 24.300428 
36.939236 14.641164 21.746145 100.530457 -38.064404 -156.948257 0.000000 0.000000 0.000000 23.637508 0.554061 5.517886 -2.198266 -36.340763 -2.947078 14.784400 26.150640 23.925150 37.888512 10.568328 15.592919 -26.235073 -69.537003 -43.124798 -61.054707 11.299367 13.858233 38.833134 15.498126 -54.260670 -45.000000 -29.996695 -24.996220 124.062859 19.903374 92.173561 67.787827 -123.892868 43.886101 19.778036 7.036274 -75.646828 -77.659706 24.527639 10.393489 77.361717 -10.856571 -5.652839 56.999107 14.273684 -33.329651 -17.884762 -12.935118 -2.176793 123.739311 -18.142698 4.795434 16.040874 8.521435 29.962749 
37.489380 14.141955 21.408953 97.650627 -35.427082 -159.280960 0.000000 0.000000 0.000000 22.376732 0.728870 5.645067 -7.637133 -36.155758 -2.927657 15.853707 25.250910 27.848343 41.091949 7.199898 17.440199 -7.792765 -65.364838 -48.924721 -57.257782 24.692356 7.914032 39.527344 11.440590 -57.340195 -45.000000 -29.996695 -24.996220 125.186012 22.183544 91.949844 73.033440 -125.442093 45.200729 21.377588 7.292807 -75.518372 -83.407616 27.167681 9.514482 69.367760 -12.320389 -5.796278 57.502254 16.408302 -37.069897 -18.187834 -11.959240 -1.867280 122.772240 -18.339382 4.724276 14.937007 8.584577 40.110008 
37.644203 14.034337 20.957050 99.843323 -33.956234 -163.038071 0.000000 0.000000 0.000000 24.528812 1.545099 5.685734 -9.671599 -34.831272 -2.798265 15.219678 22.917421 29.546070 43.273956 6.501555 17.589367 -1.796199 -61.103664 -47.456036 -52.408295 33.635082 3.021655 38.557240 8.753881 -59.458168 -45.000000 -29.996695 -24.996220 124.998566 26.576992 91.163040 76.385612 -125.585976 46.792294 22.013662 6.598867 -75.509186 -85.517372 28.613291 9.355790 66.386040 -13.066554 -5.927209 50.887768 20.658239 -38.409153 -17.087994 -10.428596 -1.404019 122.655624 -18.388472 4.727253 15.981095 9.268430 39.484692 
37.571861 14.179258 20.669563 103.723381 -35.028511 -163.832077 0.000000 0.000000 0.000000 27.909119 1.137615 5.342874 -7.751880 -33.535759 -2.675780 13.572835 21.735096 27.641119 42.440926 7.881535 16.539225 -1.917871 -59.764900 -46.233505 -51.256817 36.213402 0.760944 37.952599 9.004686 -59.095985 -45.000000 -29.996695 -24.996220 122.706902 27.753208 90.495537 77.802490 -126.912773 48.670578 22.056782 7.256873 -75.430107 -83.423393 27.136204 9.513635 65.386597 -16.214888 -6.676203 42.700726 24.890697 -39.212730 -13.944346 -12.616251 -2.241006 122.789497 -16.815186 5.067867 16.147823 10.868253 32.790173 
37.482685 14.371190 20.564222 105.869232 -36.514748 -162.630936 0.000000 0.000000 0.000000 29.609047 0.544720 5.088124 -5.086768 -33.224094 -2.643320 12.833309 21.481541 25.873039 40.763203 9.421293 15.662547 -3.993854 -59.790260 -45.531982 -52.705433 34.456150 -2.561849 39.501652 11.449356 -56.835915 -45.000000 -29.996695 -24.996220 121.103363 26.996202 90.259621 75.977005 -127.924522 48.002590 21.703642 9.063650 -75.316727 -80.895805 25.682171 9.815909 65.124596 -20.160271 -7.739047 36.603012 27.167326 -39.510712 -11.366944 -15.800035 -3.391238 122.809669 -14.881907 5.433698 15.412337 12.962510 26.447653 
37.466499 14.511867 20.526306 104.559937 -36.355049 -161.711914 0.000000 0.000000 0.000000 28.011118 0.466831 5.185771 -4.186179 -34.295593 -2.746408 13.935247 21.390186 27.153194 40.805058 9.744922 15.368511 -7.572274 -59.183632 -43.763565 -54.290020 29.760323 -8.273628 44.104267 13.449986 -54.273521 -45.000000 -29.996695 -24.996220 122.746216 27.752911 90.495956 71.048805 -126.492767 43.234287 20.680729 10.971028 -75.312027 -80.729164 27.205196 10.351029 65.304039 -22.817102 -8.459332 34.660660 26.831297 -39.501476 -11.870343 -16.496717 -3.621862 122.804573 -14.733736 5.470708 14.862269 14.250372 26.536522 
